<svg xmlns="http://www.w3.org/2000/svg" viewBox="0 0 24 24" fill="currentColor">
  <path d="M18.223 3.086a1.25 1.25 0 0 1 0 1.768L17.08 5.996h1.17A3.75 3.75 0 0 1 22 9.747v7.5a3.75 3.75 0 0 1-3.75 3.75H5.75A3.75 3.75 0 0 1 2 17.247v-7.5a3.75 3.75 0 0 1 3.75-3.75h1.166L5.775 4.855a1.25 1.25 0 1 1 1.767-1.768l2.652 2.652c.079.079.145.165.198.257h3.213c.053-.092.12-.178.199-.257l2.651-2.652a1.25 1.25 0 0 1 1.768 0zm.027 5.42H5.75a1.25 1.25 0 0 0-1.247 1.157l-.003.094v7.5c0 .659.51 1.199 1.157 1.246l.093.004h12.5a1.25 1.25 0 0 0 1.247-1.157l.003-.093v-7.5c0-.652-.51-1.2-1.157-1.247l-.093-.003zM12 8.75a1.25 1.25 0 1 1 0 2.5 1.25 1.25 0 0 1 0-2.5z"/>
</svg>
