<svg xmlns="http://www.w3.org/2000/svg" viewBox="0 0 24 24" fill="currentColor">
  <path d="M19.59 6.69a4.83 4.83 0 0 1-3.77-4.25V2h-3.45v14.78a2.07 2.07 0 0 1-2.07 2.07c-1.14 0-2.07-.93-2.07-2.07a2.07 2.07 0 0 1 2.04-2.07c.35 0 .69.09.99.24V10.4a6.84 6.84 0 0 0-1-.08c-3.67 0-6.64 2.97-6.64 6.64 0 3.67 2.97 6.64 6.64 6.64 3.67 0 6.64-2.97 6.64-6.64V8.81c.98.67 2.09 1.03 3.23 1.03v-3.4c-.79 0-1.57-.27-2.2-.75zm-6.79 10.96a2.07 2.07 0 0 1-2.07-2.07c0-1.14.93-2.07 2.07-2.07 1.14 0 2.07.93 2.07 2.07a2.07 2.07 0 0 1-2.07 2.07z"/>
</svg>
